<svg width="32" height="32" viewBox="0 0 32 32" fill="none" xmlns="http://www.w3.org/2000/svg">
<g id="mdi:twitter">
<path id="Vector" d="M29.947 7.99992C28.9204 8.46659 27.8137 8.77325 26.667 8.91992C27.8404 8.21325 28.747 7.09325 29.1737 5.74659C28.067 6.41325 26.8404 6.87992 25.547 7.14659C24.4937 5.99992 23.0137 5.33325 21.3337 5.33325C18.2004 5.33325 15.6404 7.89325 15.6404 11.0533C15.6404 11.5066 15.6937 11.9466 15.787 12.3599C11.0404 12.1199 6.81371 9.83992 4.00038 6.38659C3.50704 7.22659 3.22704 8.21325 3.22704 9.25325C3.22704 11.2399 4.22704 12.9999 5.77371 13.9999C4.82704 13.9999 3.94704 13.7333 3.17371 13.3333V13.3733C3.17371 16.1466 5.14704 18.4666 7.76038 18.9866C6.92135 19.2162 6.0405 19.2481 5.18704 19.0799C5.54919 20.2166 6.25843 21.2111 7.21507 21.9238C8.17171 22.6365 9.32764 23.0315 10.5204 23.0533C8.49855 24.6538 5.99237 25.519 3.41371 25.5066C2.96038 25.5066 2.50704 25.4799 2.05371 25.4266C4.58704 27.0532 7.60038 27.9999 10.827 27.9999C21.3337 27.9999 27.107 19.2799 27.107 11.7199C27.107 11.4666 27.107 11.2266 27.0937 10.9733C28.2137 10.1733 29.1737 9.15992 29.947 7.99992Z" fill="white"/>
</g>
</svg>
